<?xml version="1.0" encoding="UTF-8"?>
<svg width="100px" height="104px" viewBox="0 0 100 104" version="1.1" xmlns="http://www.w3.org/2000/svg" xmlns:xlink="http://www.w3.org/1999/xlink">
    <title>Artboard</title>
    <g id="Artboard" stroke="none" stroke-width="1" fill="none" fill-rule="evenodd">
        <path d="M49.83787,101.877 C68.68557,101.877 83.67577,87.179691 83.67577,68.8203 C83.67577,58.6152 78.59767,48.5566 74.15427,40.2559 L56.42967,7.1504 C54.86717,4.3672 52.66997,3 49.83787,3 C46.95707,3 44.75977,4.3672 43.24607,7.1016 L25.52147,40.2559 C21.07817,48.5566 16,58.6152 16,68.8203 C16,87.179691 30.99027,101.877 49.83787,101.877 Z M49.83787,93.86914 C35.48247,93.86914 24.00777,82.83399 24.00777,68.8203 C24.00777,60.373 28.25587,52.3652 32.69927,44.0645 L49.34957,13.0098 C49.59377,12.4238 50.17967,12.4727 50.42387,13.0098 L67.02537,44.0645 C71.46877,52.3164 75.71677,60.373 75.71677,68.8203 C75.71677,82.83399 64.19337,93.86914 49.83787,93.86914 Z" id="Shape" fill="#000000" fill-rule="nonzero"></path>
    </g>
</svg>