<?xml version="1.0" encoding="UTF-8"?>
<svg width="85px" height="90px" viewBox="0 0 85 90" version="1.1" xmlns="http://www.w3.org/2000/svg" xmlns:xlink="http://www.w3.org/1999/xlink">
    <title>Group 2</title>
    <defs>
        <filter id="filter-1">
            <feColorMatrix in="SourceGraphic" type="matrix" values="0 0 0 0 0.000000 0 0 0 0 0.000000 0 0 0 0 0.000000 0 0 0 1.000000 0"></feColorMatrix>
        </filter>
    </defs>
    <g id="Page-1" stroke="none" stroke-width="1" fill="none" fill-rule="evenodd">
        <g id="Group-2" transform="translate(-242.000000, -241.000000)" filter="url(#filter-1)">
            <g transform="translate(284.737675, 284.374428) rotate(41.000000) translate(-284.737675, -284.374428) translate(252.237675, 232.874428)">
                <path d="M23.4451303,8.25235655 C27.0183951,5.88492814 30.4342823,4.64865644 32.8369347,4.7618482 L32.882,4.764 L32.8395733,4.89883872 C32.534777,5.8004327 31.9505189,6.89777156 31.3847121,8.2021321 L31.2546045,8.50681846 C28.8616668,14.2046032 25.4732215,22.4137011 25.5593756,33.2641114 C25.6204518,40.9561584 27.4503342,45.0217634 30.1643515,50.8257612 C31.3066395,53.2685744 32.6165904,56.0642266 33.9912237,59.7386314 C38.141186,70.8315108 40.4783018,79.9681878 40.4783018,85.4131385 C40.4783018,89.5425107 39.2722455,92.8059664 37.3188881,95.0858767 C35.2556728,97.4940105 32.395317,98.7655295 29.6113041,98.7655295 C25.8301371,98.7655295 17.6641721,94.5029995 11.7738743,84.3102883 C7.54224957,76.9877843 4.47830178,66.6139178 4.47830178,52.3530903 C4.47830178,37.6172632 8.1035333,26.6850983 13.0861096,18.9930425 C16.2313849,14.1373951 19.8956686,10.6040145 23.4451303,8.25235655 Z" id="Oval" stroke="#979797" stroke-width="8"></path>
                <path d="M46.5589805,6.92656363 C46.5813098,7.86143834 46.3256362,9.08844516 46.164261,10.5636546 C45.7668173,14.1968803 45.2620008,18.954327 45.8327028,24.7810225 C46.622566,32.8452871 50.2285264,41.3937265 53.8165087,49.7118892 C56.3430966,55.5693787 58.8470525,61.301979 60.0252282,66.6433996 C61.1888124,71.9186676 60.1320561,78.4167814 59.1230523,82.9190328 C58.0986315,87.490076 56.0385252,91.5479792 53.6264701,94.520164 C51.6602704,96.9429564 49.5034852,98.9172583 47.5067109,98.9172583 C45.4576157,98.9172583 42.6429856,97.7687864 39.7509996,95.3953585 C37.0955937,93.2160897 34.4304277,90.0069557 32.1431366,85.5597356 C28.3410554,78.1672824 25.6482421,67.5101312 25.6482421,52.6401839 C25.6482421,38.3676217 28.3839626,28.0025506 32.1507676,20.7132284 C34.5150253,16.1380418 37.2628881,12.8240679 39.9214033,10.5616328 C42.5096072,8.35903363 44.9441826,7.0726694 46.5589805,6.92656363 Z" id="Oval" stroke="#979797" stroke-width="8" transform="translate(43.082714, 52.917258) scale(-1, -1) translate(-43.082714, -52.917258) "></path>
            </g>
        </g>
    </g>
</svg>