<?xml version="1.0" encoding="UTF-8"?>
<svg width="472px" height="506px" viewBox="0 0 472 506" version="1.1" xmlns="http://www.w3.org/2000/svg" xmlns:xlink="http://www.w3.org/1999/xlink">
    <title>Group 2</title>
    <g id="Page-1" stroke="none" stroke-width="1" fill="none" fill-rule="evenodd">
        <g id="Coffee-Bean" transform="translate(-75.000000, -38.000000)" fill="#000000">
            <g id="Group-2" transform="translate(306.573532, 284.000000) rotate(41.000000) translate(-306.573532, -284.000000) translate(125.073532, 8.000000)">
                <path d="M158.926468,552 C198.201744,552 220.260813,520.359865 220.260813,458 C220.260813,395.640135 99.5040085,295.011351 99.5040085,182 C99.5040085,68.9886489 202.793186,0 158.926468,0 C115.059749,0 0,63.0010662 0,276.001066 C0,489.001066 119.651192,552 158.926468,552 Z" id="Oval"></path>
                <path d="M279.346201,552 C309.660977,552 342.21482,501.675529 355.613005,442.148488 C361.776506,414.764557 366.312382,389.511797 359.220983,357.5 C343.670285,287.301477 259.899363,222.5 244.821866,126 C229.744368,29.5 295.898963,0 259.899363,0 C223.899763,0 136.781438,62.9989338 136.781438,275.998934 C136.781438,488.998934 235.085869,552 279.346201,552 Z" id="Oval" transform="translate(249.803507, 276.000000) scale(-1, -1) translate(-249.803507, -276.000000) "></path>
            </g>
        </g>
    </g>
</svg>